<svg xmlns="http://www.w3.org/2000/svg" viewBox="0 0 505.03 435.77">
  <g transform="translate(-53.82 -206.66)">
  <path fill="#FFFFFF" fill-rule="evenodd" d=" 
M357.7466,384.4689
C343.1582,346.3424 304.2567,335.5518 295.4057,298.7282
C291.5228,282.5733 292.5256,261.2005 305.4142,230.6578
C302.8471,257.8175 305.4242,278.1160 311.5491,292.7072
C328.4517,332.9739 368.8546,335.5955 383.4852,381.3059
C392.0855,408.1740 388.1259,428.0155 379.9317,445.8034
C366.1227,475.7823 337.0821,495.1367 312.5311,497.5069
C358.0460,477.1103 374.9773,429.4989 357.7466,384.4689
Z"/>
  <path fill="#E84512" fill-rule="evenodd" d=" 
M273.5422,327.3368
C265.5392,335.7731 256.7183,339.7133 247.1783,339.6954
C263.0072,325.4115 274.7032,309.3562 282.1933,291.4988
C293.7848,334.0010 313.1335,339.5414 330.8011,361.9393
C349.0718,385.1007 357.6700,408.8473 353.0457,435.2642
C346.9695,469.9755 322.5718,489.3800 282.1933,490.8756
C248.0973,492.1384 227.4199,473.5669 223.2863,438.5597
C220.5809,415.6469 233.1644,391.6037 256.8988,371.5381
C238.1317,403.8613 235.2810,428.7898 241.2010,445.8063
C253.3905,480.8414 302.5470,479.6015 321.7904,453.3035
C330.3011,441.6734 334.0164,426.5930 331.2130,410.2591
C325.7678,378.5418 290.1074,358.8414 273.5422,327.3368
Z"/>
  </g>
  <g transform="translate(-58.74 -198.07)">
  <path fill="#E84512" fill-rule="evenodd" d=" 
M209.9437,529.3383
L219.1837,529.3383
L219.1837,572.6868
C217.5800,573.9098 215.7661,574.8069 213.7404,575.3762
C211.7163,575.9455 209.7335,576.2302 207.7922,576.2302
C205.8509,576.2302 203.8681,575.9455 201.8440,575.3762
C199.8183,574.8069 198.0044,573.9098 196.4007,572.6868
L196.4007,555.8535
L205.6407,555.8535
L205.6407,569.0805
C205.6407,569.5008 205.8724,569.7127 206.3374,569.7127
L209.2470,569.7127
C209.7120,569.7127 209.9437,569.5008 209.9437,569.0805
L209.9437,529.3383
Z
Z
M247.0279,575.3447
L237.7879,575.3447
L237.7879,557.2454
L233.4848,557.2454
L233.4848,575.3447
L224.2448,575.3447
L224.2448,531.9963
C225.8485,530.7716 227.6624,529.8762 229.6882,529.3069
C231.7123,528.7359 233.6967,528.4512 235.6364,528.4512
C237.5777,528.4512 239.5604,528.7359 241.5845,529.3069
C243.6103,529.8762 245.4242,530.7716 247.0279,531.9963
L247.0279,575.3447
Z
Z
M237.7879,550.2843
L237.7879,535.6026
C237.7879,535.1806 237.5562,534.9704 237.0928,534.9704
L234.1816,534.9704
C233.7165,534.9704 233.4848,535.1806 233.4848,535.6026
L233.4848,550.2843
L237.7879,550.2843
Z
Z
M261.5822,575.3447
L252.2793,575.3447
L252.2793,529.3383
L261.5822,529.3383
L261.5822,575.3447
Z
Z
M283.6056,546.2345
C283.6056,546.6979 283.6371,546.9826 283.6999,547.0885
C283.7628,547.1944 283.9217,547.3103 284.1749,547.4360
L296.7051,553.3859
C296.9153,554.2299 297.0212,555.3686 297.0212,556.8035
L297.0212,572.6868
C295.4175,573.9098 293.6251,574.8069 291.6424,575.3762
C289.6597,575.9455 287.6968,576.2302 285.7571,576.2302
C283.8158,576.2302 281.8645,575.9455 279.9033,575.3762
C277.9405,574.8069 276.1580,573.9098 274.5559,572.6868
L274.5559,560.9791
L283.7314,560.9791
L283.7314,569.0805
C283.7314,569.5008 283.9631,569.7127 284.4282,569.7127
L287.2748,569.7127
C287.7399,569.7127 287.9716,569.5008 287.9716,569.0805
L287.9716,559.3340
C287.9716,558.7432 287.9401,558.3642 287.8772,558.1954
C287.8127,558.0266 287.5495,557.8362 287.0861,557.6260
L274.8091,551.8037
C274.7247,551.3816 274.6602,550.8338 274.6188,550.1586
C274.5774,549.4833 274.5559,548.8925 274.5559,548.3860
L274.5559,531.9963
C276.1580,530.7716 277.9405,529.8762 279.9033,529.3069
C281.8645,528.7359 283.8158,528.4512 285.7571,528.4512
C287.6968,528.4512 289.6597,528.7359 291.6424,529.3069
C293.6251,529.8762 295.4175,530.7716 297.0212,531.9963
L297.0212,544.0201
L287.8458,544.0201
L287.8458,535.6026
C287.8458,535.1806 287.6124,534.9704 287.1490,534.9704
L284.3007,534.9704
C283.8373,534.9704 283.6056,535.1806 283.6056,535.6026
L283.6056,546.2345
Z
Z
M301.8936,529.3383
L311.1336,529.3383
L311.1336,548.9554
L315.6270,548.9554
L315.6270,529.3383
L324.8670,529.3383
L324.8670,575.3447
L315.6270,575.3447
L315.6270,556.2325
L311.1336,556.2325
L311.1336,575.3447
L301.8936,575.3447
L301.8936,529.3383
Z
Z
M339.1681,550.3472
L342.7115,550.3472
C343.1336,550.3472 343.3454,550.1370 343.3454,549.7150
L343.3454,536.3623
C343.3454,535.7714 343.0492,535.4768 342.4583,535.4768
L339.1681,535.4768
L339.1681,550.3472
Z
Z
M343.3454,558.0050
C343.3454,557.5830 343.1336,557.3728 342.7115,557.3728
L339.1681,557.3728
L339.1681,575.3447
L329.9281,575.3447
L329.9281,529.3383
L340.4342,529.3383
C342.8803,529.3383 345.1908,529.5601 347.3638,530.0020
C349.5369,530.4456 351.3607,531.1738 352.8370,532.1850
L352.8370,550.7908
C352.4149,551.3386 351.8886,551.8881 351.2548,552.4359
C350.6226,552.9853 349.9688,553.4901 349.2936,553.9552
C349.9688,554.4186 350.6226,554.9035 351.2548,555.4100
C351.8886,555.9164 352.4149,556.4228 352.8370,556.9293
L352.8370,575.3447
L343.3454,575.3447
L343.3454,558.0050
Z
Z
M357.8997,529.3383
L375.9362,529.3383
L375.9362,537.2477
L367.1397,537.2477
L367.1397,548.9554
L375.0507,548.9554
L375.0507,556.2325
L367.1397,556.2325
L367.1397,567.4337
L375.9362,567.4337
L375.9362,575.3447
L357.8997,575.3447
L357.8997,529.3383
Z
Z
M380.6811,529.3383
L398.7176,529.3383
L398.7176,537.2477
L389.9211,537.2477
L389.9211,548.9554
L397.8322,548.9554
L397.8322,556.2325
L389.9211,556.2325
L389.9211,567.4337
L398.7176,567.4337
L398.7176,575.3447
L380.6811,575.3447
L380.6811,529.3383
Z"/>
  <g fill="none" stroke="#FFFFFF" stroke-width="2.2" stroke-linejoin="round"><circle cx="412.7" cy="519.0" r="9.0"/><path d="M410.09999999999997,524.2 L410.09999999999997,513.8 L412.9,513.8 A2.6,2.6 0 0 1 412.9,519.0 L410.09999999999997,519.0 M412.4,519.0 L415.59999999999997,524.2"/></g>
  </g>
  <g transform="translate(-44.92 -199.49)">
  <path fill="#FFFFFF" fill-rule="evenodd" d=" 
M75.4100,594.0730
L78.6257,594.0730
L85.0787,610.8417
L81.7587,610.8417
L80.4512,607.3860
L73.5779,607.3860
L72.2390,610.8417
L68.9190,610.8417
L75.4100,594.0730
Z
Z
M77.0220,598.5300
L74.7497,604.3027
L79.2844,604.3027
L77.0220,598.5300
Z
Z
M102.9712,597.0156
L100.7336,599.1407
C99.2109,597.5370 97.5030,596.7359 95.5997,596.7359
C93.9960,596.7359 92.6421,597.2854 91.5432,598.3777
C90.4426,599.4717 89.8932,600.8189 89.8932,602.4226
C89.8932,603.5398 90.1381,604.5328 90.6247,605.3967
C91.1113,606.2639 91.8014,606.9458 92.6885,607.4390
C93.5789,607.9338 94.5686,608.1788 95.6576,608.1788
C96.5844,608.1788 97.4334,608.0083 98.1997,607.6624
C98.9710,607.3149 99.8150,606.6843 100.7336,605.7740
L102.9017,608.0398
C101.6637,609.2496 100.4919,610.0903 99.3913,610.5571
C98.2891,611.0287 97.0280,611.2621 95.6146,611.2621
C93.0079,611.2621 90.8713,610.4362 89.2080,608.7829
C87.5463,607.1328 86.7172,605.0111 86.7172,602.4309
C86.7172,600.7560 87.0945,599.2731 87.8542,597.9739
C88.6089,596.6731 89.6912,595.6304 91.1046,594.8409
C92.5131,594.0498 94.0307,593.6526 95.6626,593.6526
C97.0445,593.6526 98.3752,593.9456 99.6595,594.5281
C100.9404,595.1124 102.0460,595.9415 102.9712,597.0156
Z
Z
M121.1831,597.0156
L118.9455,599.1407
C117.4228,597.5370 115.7149,596.7359 113.8116,596.7359
C112.2079,596.7359 110.8540,597.2854 109.7551,598.3777
C108.6545,599.4717 108.1051,600.8189 108.1051,602.4226
C108.1051,603.5398 108.3500,604.5328 108.8366,605.3967
C109.3232,606.2639 110.0133,606.9458 110.9004,607.4390
C111.7908,607.9338 112.7805,608.1788 113.8695,608.1788
C114.7963,608.1788 115.6453,608.0083 116.4116,607.6624
C117.1829,607.3149 118.0269,606.6843 118.9455,605.7740
L121.1136,608.0398
C119.8756,609.2496 118.7038,610.0903 117.6032,610.5571
C116.5010,611.0287 115.2399,611.2621 113.8265,611.2621
C111.2198,611.2621 109.0832,610.4362 107.4199,608.7829
C105.7582,607.1328 104.9291,605.0111 104.9291,602.4309
C104.9291,600.7560 105.3064,599.2731 106.0661,597.9739
C106.8208,596.6731 107.9031,595.6304 109.3165,594.8409
C110.7250,594.0498 112.2426,593.6526 113.8745,593.6526
C115.2564,593.6526 116.5871,593.9456 117.8714,594.5281
C119.1523,595.1124 120.2579,595.9415 121.1831,597.0156
Z
Z
M124.0049,594.0730
L133.1605,594.0730
L133.1605,597.2027
L127.1809,597.2027
L127.1809,600.2148
L133.1605,600.2148
L133.1605,603.2981
L127.1809,603.2981
L127.1809,607.7121
L133.1605,607.7121
L133.1605,610.8417
L124.0049,610.8417
L124.0049,594.0730
Z
Z
M136.1031,594.0730
L139.4926,594.0730
C141.3264,594.0730 142.6454,594.2402 143.4564,594.5794
C144.2657,594.9187 144.9079,595.4665 145.3746,596.2229
C145.8413,596.9776 146.0746,597.8845 146.0746,598.9421
C146.0746,600.1138 145.7685,601.0870 145.1528,601.8616
C144.5421,602.6361 143.7080,603.1773 142.6537,603.4818
C142.0347,603.6573 140.9110,603.7417 139.2791,603.7417
L139.2791,610.8417
L136.1031,610.8417
L136.1031,594.0730
Z
Z
M139.2791,600.6352
L140.3036,600.6352
C141.1079,600.6352 141.6657,600.5773 141.9801,600.4647
C142.2962,600.3472 142.5412,600.1618 142.7232,599.8970
C142.9036,599.6322 142.9930,599.3128 142.9930,598.9355
C142.9930,598.2850 142.7398,597.8101 142.2333,597.5138
C141.8676,597.2920 141.1824,597.1795 140.1861,597.1795
L139.2791,597.1795
L139.2791,600.6352
Z
Z
M147.5691,594.0730
L156.8406,594.0730
L156.8406,597.2258
L153.7821,597.2258
L153.7821,610.8417
L150.5349,610.8417
L150.5349,597.2258
L147.5691,597.2258
L147.5691,594.0730
Z
Z
M180.9626,597.0156
L178.7250,599.1407
C177.2024,597.5370 175.4944,596.7359 173.5911,596.7359
C171.9874,596.7359 170.6336,597.2854 169.5346,598.3777
C168.4340,599.4717 167.8846,600.8189 167.8846,602.4226
C167.8846,603.5398 168.1295,604.5328 168.6161,605.3967
C169.1027,606.2639 169.7928,606.9458 170.6799,607.4390
C171.5703,607.9338 172.5600,608.1788 173.6490,608.1788
C174.5758,608.1788 175.4249,608.0083 176.1911,607.6624
C176.9624,607.3149 177.8064,606.6843 178.7250,605.7740
L180.8931,608.0398
C179.6551,609.2496 178.4834,610.0903 177.3828,610.5571
C176.2805,611.0287 175.0194,611.2621 173.6060,611.2621
C170.9993,611.2621 168.8627,610.4362 167.1994,608.7829
C165.5377,607.1328 164.7086,605.0111 164.7086,602.4309
C164.7086,600.7560 165.0859,599.2731 165.8456,597.9739
C166.6003,596.6731 167.6827,595.6304 169.0961,594.8409
C170.5045,594.0498 172.0221,593.6526 173.6540,593.6526
C175.0359,593.6526 176.3666,593.9456 177.6509,594.5281
C178.9319,595.1124 180.0374,595.9415 180.9626,597.0156
Z
Z
M183.7381,594.0730
L186.9836,594.0730
L186.9836,600.4018
L192.5891,600.4018
L192.5891,594.0730
L195.8115,594.0730
L195.8115,610.8417
L192.5891,610.8417
L192.5891,603.4851
L186.9836,603.4851
L186.9836,610.8417
L183.7381,610.8417
L183.7381,594.0730
Z
Z
M204.7718,594.0730
L207.9875,594.0730
L214.4404,610.8417
L211.1205,610.8417
L209.8130,607.3860
L202.9397,607.3860
L201.6008,610.8417
L198.2808,610.8417
L204.7718,594.0730
Z
Z
M206.3838,598.5300
L204.1114,604.3027
L208.6462,604.3027
L206.3838,598.5300
Z
Z
M216.8965,594.0730
L220.0725,594.0730
L220.0725,607.8064
L224.7661,607.8064
L224.7661,610.8417
L216.8965,610.8417
L216.8965,594.0730
Z
Z
M227.1725,594.0730
L230.3485,594.0730
L230.3485,607.8064
L235.0422,607.8064
L235.0422,610.8417
L227.1725,610.8417
L227.1725,594.0730
Z
Z
M237.4949,594.0730
L246.6505,594.0730
L246.6505,597.2027
L240.6709,597.2027
L240.6709,600.2148
L246.6505,600.2148
L246.6505,603.2981
L240.6709,603.2981
L240.6709,607.7121
L246.6505,607.7121
L246.6505,610.8417
L237.4949,610.8417
L237.4949,594.0730
Z
Z
M249.6395,594.0730
L252.6682,594.0730
L259.8924,605.1087
L259.8924,594.0730
L263.0684,594.0730
L263.0684,610.8417
L260.0165,610.8417
L252.8155,599.8424
L252.8155,610.8417
L249.6395,610.8417
L249.6395,594.0730
Z
Z
M282.3925,596.8137
L280.1466,599.0364
C278.7266,597.5337 277.0683,596.7823 275.1766,596.7823
C273.5298,596.7823 272.1479,597.3268 271.0357,598.4208
C269.9219,599.5147 269.3658,600.8421 269.3658,602.4077
C269.3658,604.0230 269.9417,605.3917 271.0969,606.5171
C272.2538,607.6426 273.6788,608.2020 275.3719,608.2020
C276.4724,608.2020 277.4026,607.9686 278.1589,607.5052
C278.9136,607.0434 279.5243,606.3185 279.9877,605.3305
L275.1335,605.3305
L275.1335,602.3415
L283.5642,602.3415
L283.5874,603.0449
C283.5874,604.5129 283.2067,605.9031 282.4471,607.2172
C281.6841,608.5297 280.6994,609.5343 279.4929,610.2261
C278.2830,610.9162 276.8614,611.2621 275.2345,611.2621
C273.4951,611.2621 271.9426,610.8848 270.5756,610.1301
C269.2102,609.3704 268.1311,608.2963 267.3334,606.8995
C266.5390,605.4976 266.1434,603.9916 266.1434,602.3713
C266.1434,600.1536 266.8783,598.2222 268.3463,596.5837
C270.0857,594.6307 272.3547,593.6526 275.1451,593.6526
C276.6049,593.6526 277.9719,593.9224 279.2446,594.4619
C280.3154,594.9187 281.3664,595.7049 282.3925,596.8137
Z
Z
M286.5267,594.0730
L295.6823,594.0730
L295.6823,597.2027
L289.7027,597.2027
L289.7027,600.2148
L295.6823,600.2148
L295.6823,603.2981
L289.7027,603.2981
L289.7027,607.7121
L295.6823,607.7121
L295.6823,610.8417
L286.5267,610.8417
L286.5267,594.0730
Z
Z
M307.4529,596.3536
L305.0862,598.4406
C304.2570,597.2887 303.4130,596.7128 302.5523,596.7128
C302.1320,596.7128 301.7894,596.8253 301.5246,597.0471
C301.2565,597.2738 301.1241,597.5254 301.1241,597.8067
C301.1241,598.0864 301.2167,598.3546 301.4087,598.6045
C301.6686,598.9388 302.4514,599.6554 303.7555,600.7560
C304.9736,601.7771 305.7134,602.4193 305.9733,602.6841
C306.6204,603.3378 307.0788,603.9601 307.3519,604.5559
C307.6200,605.1551 307.7557,605.8055 307.7557,606.5089
C307.7557,607.8875 307.2807,609.0195 306.3275,609.9199
C305.3775,610.8152 304.1362,611.2621 302.6036,611.2621
C301.4087,611.2621 300.3694,610.9708 299.4806,610.3866
C298.5935,609.7991 297.8306,608.8805 297.2000,607.6260
L299.8894,606.0074
C300.7004,607.4870 301.6305,608.2268 302.6814,608.2268
C303.2292,608.2268 303.6927,608.0662 304.0667,607.7468
C304.4407,607.4274 304.6277,607.0583 304.6277,606.6413
C304.6277,606.2639 304.4871,605.8833 304.2024,605.5010
C303.9227,605.1236 303.3004,604.5394 302.3388,603.7582
C300.5084,602.2703 299.3300,601.1218 298.7954,600.3125
C298.2625,599.5031 297.9944,598.6971 297.9944,597.8911
C297.9944,596.7277 298.4379,595.7313 299.3217,594.9022
C300.2088,594.0697 301.3028,593.6526 302.6036,593.6526
C303.4394,593.6526 304.2372,593.8479 304.9935,594.2335
C305.7515,594.6225 306.5691,595.3275 307.4529,596.3536
Z
Z
M320.6252,594.0730
L324.4053,594.0730
C326.8415,594.0730 328.6521,594.3775 329.8387,594.9800
C331.0221,595.5840 331.9986,596.5638 332.7665,597.9276
C333.5328,599.2847 333.9134,600.8735 333.9134,602.6907
C333.9134,603.9833 333.6999,605.1700 333.2713,606.2523
C332.8443,607.3347 332.2485,608.2334 331.4938,608.9500
C330.7374,609.6617 329.9198,610.1565 329.0410,610.4329
C328.1605,610.7060 326.6346,610.8417 324.4632,610.8417
L320.6252,610.8417
L320.6252,594.0730
Z
Z
M323.8012,597.1563
L323.8012,607.7352
L325.2808,607.7352
C326.7405,607.7352 327.7948,607.5681 328.4535,607.2338
C329.1105,606.8995 329.6484,606.3351 330.0638,605.5440
C330.4809,604.7545 330.6911,603.7814 330.6911,602.6212
C330.6911,600.8421 330.1929,599.4601 329.1999,598.4803
C328.3045,597.5966 326.8647,597.1563 324.8836,597.1563
L323.8012,597.1563
Z
Z
M336.9769,594.0730
L346.1325,594.0730
L346.1325,597.2027
L340.1529,597.2027
L340.1529,600.2148
L346.1325,600.2148
L346.1325,603.2981
L340.1529,603.2981
L340.1529,607.7121
L346.1325,607.7121
L346.1325,610.8417
L336.9769,610.8417
L336.9769,594.0730
Z
Z
M347.8256,594.0730
L351.1075,594.0730
L355.3228,605.9842
L359.6193,594.0730
L362.8896,594.0730
L356.8405,610.8417
L353.7572,610.8417
L347.8256,594.0730
Z
Z
M365.4731,594.0730
L374.6287,594.0730
L374.6287,597.2027
L368.6491,597.2027
L368.6491,600.2148
L374.6287,600.2148
L374.6287,603.2981
L368.6491,603.2981
L368.6491,607.7121
L374.6287,607.7121
L374.6287,610.8417
L365.4731,610.8417
L365.4731,594.0730
Z
Z
M377.5713,594.0730
L380.7473,594.0730
L380.7473,607.8064
L385.4410,607.8064
L385.4410,610.8417
L377.5713,610.8417
L377.5713,594.0730
Z
Z
M395.7766,593.6526
C398.1466,593.6526 400.1856,594.5132 401.8903,596.2295
C403.5999,597.9458 404.4523,600.0410 404.4523,602.5087
C404.4523,604.9565 403.6115,607.0269 401.9267,608.7200
C400.2452,610.4131 398.2012,611.2621 395.7998,611.2621
C393.2808,611.2621 391.1905,610.3899 389.5289,608.6505
C387.8623,606.9110 387.0298,604.8439 387.0298,602.4491
C387.0298,600.8503 387.4187,599.3741 388.1933,598.0285
C388.9678,596.6846 390.0353,595.6188 391.3891,594.8327
C392.7479,594.0465 394.2110,593.6526 395.7766,593.6526
Z
Z
M395.7286,596.7823
C394.1845,596.7823 392.8836,597.3235 391.8327,598.4026
C390.7784,599.4800 390.2521,600.8503 390.2521,602.5153
C390.2521,604.3689 390.9142,605.8369 392.2415,606.9143
C393.2726,607.7584 394.4526,608.1788 395.7882,608.1788
C397.2943,608.1788 398.5786,607.6310 399.6378,606.5370
C400.7003,605.4430 401.2299,604.0958 401.2299,602.4921
C401.2299,600.8967 400.6954,599.5462 399.6262,598.4406
C398.5587,597.3351 397.2595,596.7823 395.7286,596.7823
Z
Z
M407.4611,594.0730
L410.8506,594.0730
C412.6844,594.0730 414.0034,594.2402 414.8144,594.5794
C415.6237,594.9187 416.2658,595.4665 416.7325,596.2229
C417.1993,596.9776 417.4326,597.8845 417.4326,598.9421
C417.4326,600.1138 417.1264,601.0870 416.5108,601.8616
C415.9001,602.6361 415.0659,603.1773 414.0117,603.4818
C413.3927,603.6573 412.2689,603.7417 410.6371,603.7417
L410.6371,610.8417
L407.4611,610.8417
L407.4611,594.0730
Z
Z
M410.6371,600.6352
L411.6615,600.6352
C412.4659,600.6352 413.0236,600.5773 413.3381,600.4647
C413.6542,600.3472 413.8991,600.1618 414.0812,599.8970
C414.2616,599.6322 414.3510,599.3128 414.3510,598.9355
C414.3510,598.2850 414.0977,597.8101 413.5913,597.5138
C413.2255,597.2920 412.5404,597.1795 411.5440,597.1795
L410.6371,597.1795
L410.6371,600.6352
Z
Z
M435.4972,594.0730
L438.7129,594.0730
L445.1659,610.8417
L441.8459,610.8417
L440.5384,607.3860
L433.6651,607.3860
L432.3262,610.8417
L429.0062,610.8417
L435.4972,594.0730
Z
Z
M437.1092,598.5300
L434.8369,604.3027
L439.3716,604.3027
L437.1092,598.5300
Z
Z
M463.0584,597.0156
L460.8208,599.1407
C459.2981,597.5370 457.5902,596.7359 455.6869,596.7359
C454.0832,596.7359 452.7294,597.2854 451.6304,598.3777
C450.5298,599.4717 449.9804,600.8189 449.9804,602.4226
C449.9804,603.5398 450.2253,604.5328 450.7119,605.3967
C451.1985,606.2639 451.8886,606.9458 452.7757,607.4390
C453.6661,607.9338 454.6558,608.1788 455.7448,608.1788
C456.6716,608.1788 457.5207,608.0083 458.2869,607.6624
C459.0582,607.3149 459.9022,606.6843 460.8208,605.7740
L462.9889,608.0398
C461.7509,609.2496 460.5791,610.0903 459.4785,610.5571
C458.3763,611.0287 457.1152,611.2621 455.7018,611.2621
C453.0951,611.2621 450.9585,610.4362 449.2952,608.7829
C447.6335,607.1328 446.8044,605.0111 446.8044,602.4309
C446.8044,600.7560 447.1817,599.2731 447.9414,597.9739
C448.6961,596.6731 449.7784,595.6304 451.1918,594.8409
C452.6003,594.0498 454.1179,593.6526 455.7498,593.6526
C457.1317,593.6526 458.4624,593.9456 459.7467,594.5281
C461.0276,595.1124 462.1332,595.9415 463.0584,597.0156
Z
Z
M465.8338,594.0730
L469.0793,594.0730
L469.0793,600.4018
L474.6849,600.4018
L474.6849,594.0730
L477.9073,594.0730
L477.9073,610.8417
L474.6849,610.8417
L474.6849,603.4851
L469.0793,603.4851
L469.0793,610.8417
L465.8338,610.8417
L465.8338,594.0730
Z
Z
M481.5086,594.0730
L484.6846,594.0730
L484.6846,610.8417
L481.5086,610.8417
L481.5086,594.0730
Z
Z
M488.3008,594.0730
L497.4564,594.0730
L497.4564,597.2027
L491.4768,597.2027
L491.4768,600.2148
L497.4564,600.2148
L497.4564,603.2981
L491.4768,603.2981
L491.4768,607.7121
L497.4564,607.7121
L497.4564,610.8417
L488.3008,610.8417
L488.3008,594.0730
Z
Z
M499.1495,594.0730
L502.4314,594.0730
L506.6468,605.9842
L510.9432,594.0730
L514.2135,594.0730
L508.1644,610.8417
L505.0811,610.8417
L499.1495,594.0730
Z
Z
M516.7970,594.0730
L525.9526,594.0730
L525.9526,597.2027
L519.9730,597.2027
L519.9730,600.2148
L525.9526,600.2148
L525.9526,603.2981
L519.9730,603.2981
L519.9730,607.7121
L525.9526,607.7121
L525.9526,610.8417
L516.7970,610.8417
L516.7970,594.0730
Z
Z
M310.8870,603.2054
L316.6780,603.2054
L316.6780,606.1001
L310.8870,606.1001
L310.8870,603.2054
Z
Z
M420.6566,603.2054
L426.4475,603.2054
L426.4475,606.1001
L420.6566,606.1001
L420.6566,603.2054
Z"/>
  </g>
</svg>
